<?xml version="1.0" standalone="no"?>
<!DOCTYPE svg PUBLIC "-//W3C//DTD SVG 20010904//EN"
 "http://www.w3.org/TR/2001/REC-SVG-20010904/DTD/svg10.dtd">
<svg version="1.0" xmlns="http://www.w3.org/2000/svg"
 width="900.000000pt" height="900.000000pt" viewBox="0 0 900.000000 900.000000"
 preserveAspectRatio="xMidYMid meet">
<metadata>
Created by potrace 1.10, written by Peter Selinger 2001-2011
</metadata>
<g transform="translate(0.000000,900.000000) scale(0.100000,-0.100000)"
fill="#3f3e41" stroke="none">
<path d="M2700 8976 c0 -13 -3 -31 -6 -40 -8 -22 -60 -21 -74 2 -11 16 -11 16
-6 -2 8 -23 -10 -46 -36 -46 -16 0 -17 -3 -8 -20 9 -17 14 -18 30 -8 15 10 26
10 52 0 21 -8 36 -8 42 -2 6 6 25 10 43 10 40 0 42 12 7 34 -32 22 -30 59 5
64 13 2 28 -1 34 -7 18 -18 27 -13 27 14 0 24 -3 25 -55 25 -52 0 -55 -2 -55
-24z"/>
<path d="M3295 8991 c-6 -11 9 -23 19 -14 9 9 7 23 -3 23 -6 0 -12 -4 -16 -9z"/>
<path d="M3890 8984 c0 -9 5 -14 12 -12 18 6 21 28 4 28 -9 0 -16 -7 -16 -16z"/>
<path d="M5872 8983 c2 -10 10 -18 18 -18 8 0 16 8 18 18 2 12 -3 17 -18 17
-15 0 -20 -5 -18 -17z"/>
<path d="M4780 8950 c0 -5 7 -10 15 -10 8 0 15 5 15 10 0 6 -7 10 -15 10 -8 0
-15 -4 -15 -10z"/>
<path d="M5675 8940 c3 -5 13 -10 21 -10 8 0 14 5 14 10 0 6 -9 10 -21 10 -11
0 -17 -4 -14 -10z"/>
<path d="M6105 8940 c-4 -6 -23 -10 -43 -9 -58 3 -104 -10 -100 -29 2 -9 12
-18 23 -20 11 -2 27 -12 35 -23 10 -12 31 -20 63 -22 26 -1 47 -6 47 -10 0 -4
0 -11 0 -17 0 -5 -7 -7 -15 -4 -8 4 -15 2 -15 -4 0 -13 32 -21 64 -15 19 4 25
11 23 27 -1 15 4 22 21 24 18 3 22 -1 22 -26 0 -31 21 -55 57 -66 14 -5 26
-19 32 -40 5 -19 18 -43 30 -55 17 -17 20 -29 15 -56 -6 -31 -4 -34 22 -37 32
-3 48 -37 17 -34 -10 0 -18 -6 -18 -14 0 -11 10 -15 37 -14 39 1 54 -18 36
-49 -6 -12 -2 -20 19 -33 36 -23 62 -55 63 -76 0 -11 8 -18 20 -18 14 0 20 -7
20 -24 0 -13 6 -26 14 -29 7 -3 16 -26 19 -53 5 -44 19 -65 51 -77 8 -3 8 -8
-1 -17 -9 -10 -7 -21 10 -51 12 -22 25 -39 29 -39 20 0 76 -47 73 -60 -3 -8 0
-22 5 -30 7 -12 12 -12 22 -2 6 6 25 12 40 12 34 0 37 -24 9 -54 -33 -35 -47
-95 -43 -174 4 -64 7 -74 26 -82 12 -4 28 -15 35 -23 11 -14 8 -18 -23 -31
-31 -13 -36 -19 -36 -49 0 -26 -5 -36 -20 -40 -22 -6 -40 -44 -40 -84 0 -14
-11 -38 -25 -55 -14 -16 -25 -40 -25 -53 0 -14 -9 -29 -20 -35 -12 -6 -20 -21
-20 -36 0 -14 -11 -36 -25 -50 -14 -14 -25 -28 -25 -32 0 -22 -87 -176 -107
-189 -14 -9 -23 -25 -23 -40 0 -15 -17 -41 -48 -73 -40 -40 -51 -60 -66 -119
-10 -39 -25 -76 -32 -82 -9 -8 -14 -34 -14 -78 0 -47 -8 -83 -25 -126 -14 -33
-25 -72 -25 -86 0 -14 -6 -45 -14 -70 -33 -106 -53 -225 -47 -276 1 -16 31
-16 51 0 9 7 27 48 39 92 13 44 30 89 37 100 8 11 14 44 14 74 0 35 6 61 15
71 10 11 20 54 26 111 7 63 17 103 30 121 14 20 19 44 19 91 l0 64 49 41 c27
23 56 42 63 42 19 0 38 20 38 41 0 9 7 22 16 30 12 9 14 23 10 53 -8 52 0 62
52 69 53 7 55 8 42 38 -15 33 29 172 57 177 21 5 63 41 63 55 0 6 -7 18 -15
28 -14 15 -14 18 1 34 15 14 15 18 3 27 -11 7 -11 11 -1 15 6 2 12 16 12 29 0
40 45 74 97 74 48 0 66 20 45 49 -7 9 -17 26 -22 39 -6 13 -21 38 -35 56 -37
48 -33 83 10 102 19 8 35 18 35 23 0 5 9 7 20 4 16 -4 20 0 20 20 0 22 -4 25
-27 24 -23 -2 -29 2 -31 24 -2 15 4 33 12 42 19 19 21 87 4 109 -7 9 -43 26
-81 37 -44 13 -76 30 -92 48 -30 34 -30 41 -4 69 26 28 18 44 -22 44 -29 0
-30 -1 -24 -32 11 -51 11 -52 -7 -56 -22 -4 -34 38 -18 67 7 15 8 27 0 40 -15
29 -13 40 16 66 22 21 24 27 13 46 -10 20 -13 21 -23 7 -20 -27 -54 -40 -76
-28 -27 14 -25 25 6 48 42 30 27 66 -36 93 -47 20 -62 40 -40 54 19 12 10 25
-19 25 -23 0 -37 11 -70 55 -42 56 -50 82 -29 103 7 7 9 13 5 13 -4 1 -11 3
-17 4 -5 1 -14 3 -20 4 -17 2 -11 19 15 45 40 40 29 96 -19 96 -12 0 -32 9
-46 20 -14 11 -35 20 -47 20 -22 0 -83 31 -115 58 -13 10 -21 11 -37 2 -17 -9
-22 -8 -27 5 -7 17 -30 20 -39 5z m20 -60 c3 -5 -3 -10 -14 -10 -12 0 -21 5
-21 10 0 6 6 10 14 10 8 0 18 -4 21 -10z m191 -66 c10 4 24 -1 35 -13 10 -10
24 -21 31 -23 10 -4 10 -10 1 -31 -15 -32 -33 -36 -33 -7 0 12 -15 29 -40 45
-22 14 -40 30 -40 36 0 8 5 8 15 -1 8 -7 22 -9 31 -6z m613 -998 c25 -30 -25
-72 -67 -58 -15 5 -15 27 -2 53 13 22 52 25 69 5z"/>
<path d="M4394 8875 c-4 -8 -35 -29 -70 -45 -35 -16 -64 -33 -64 -37 0 -5 8
-16 19 -25 18 -15 20 -14 32 8 8 16 18 22 30 19 11 -4 22 1 28 13 7 14 18 18
35 15 18 -4 26 0 31 17 11 35 -28 69 -41 35z"/>
<path d="M5482 8870 c-13 -21 -16 -62 -5 -73 13 -14 43 27 43 60 0 37 -18 44
-38 13z"/>
<path d="M5717 8864 c-8 -8 1 -24 14 -24 5 0 9 7 9 15 0 15 -12 20 -23 9z"/>
<path d="M2594 8803 c-27 -4 -30 -7 -26 -33 5 -37 -13 -40 -53 -9 l-27 22 4
-29 c3 -26 0 -29 -28 -32 -25 -2 -33 1 -37 17 -7 29 -48 27 -75 -2 -29 -31
-28 -37 7 -37 25 0 50 -24 38 -37 -3 -2 -48 -4 -101 -5 -53 0 -97 -5 -97 -9
-1 -5 -2 -13 -3 -18 0 -5 -18 -25 -39 -45 -39 -37 -39 -40 1 -36 18 1 22 -4
22 -29 0 -21 -6 -32 -20 -36 -28 -9 -58 3 -65 26 -9 27 -24 24 -36 -8 -14 -37
4 -78 29 -68 46 20 62 17 91 -14 38 -41 73 -43 37 -2 -17 20 -4 61 19 61 8 0
15 7 15 15 0 8 5 15 11 15 7 0 9 -8 5 -20 -3 -11 -9 -28 -12 -39 -7 -23 27
-34 51 -17 15 11 15 13 1 25 -21 17 -21 57 0 65 13 5 15 14 10 41 -7 33 -6 35
22 35 16 0 46 11 66 25 20 13 42 22 50 19 8 -3 19 3 25 15 6 11 30 26 54 32
45 13 87 44 87 65 0 21 32 26 46 7 12 -16 13 -16 14 -1 1 46 -10 51 -86 41z
m-324 -201 c-1 -25 -35 -66 -49 -58 -18 11 -13 37 12 61 24 24 37 23 37 -3z"/>
<path d="M5058 8746 c-14 -32 -14 -38 -2 -43 21 -8 26 0 22 42 l-3 37 -17 -36z"/>
<path d="M4671 8746 c-7 -8 -8 -17 -3 -20 6 -3 15 1 21 8 7 8 8 17 3 20 -6 3
-15 -1 -21 -8z"/>
<path d="M4874 8746 c-6 -17 2 -36 17 -36 12 0 12 37 -1 45 -6 3 -13 -1 -16
-9z"/>
<path d="M5705 8740 c-3 -5 3 -10 14 -10 12 0 21 5 21 10 0 6 -6 10 -14 10 -8
0 -18 -4 -21 -10z"/>
<path d="M4608 8691 c-30 -30 -21 -45 11 -19 17 13 30 26 30 31 1 13 -24 6
-41 -12z"/>
<path d="M3362 8660 c14 -22 24 -19 15 5 -4 8 -11 15 -17 15 -6 0 -6 -7 2 -20z"/>
<path d="M4104 8665 c-12 -30 16 -45 46 -25 13 9 12 12 -4 25 -25 19 -35 19
-42 0z"/>
<path d="M2760 8627 c0 -14 31 -47 43 -47 13 0 7 29 -9 44 -19 20 -34 21 -34
3z"/>
<path d="M2562 8622 c-10 -7 -8 -13 7 -26 24 -21 54 -14 49 11 -4 20 -36 28
-56 15z"/>
<path d="M5010 8617 c0 -14 20 -37 32 -37 15 0 8 38 -8 44 -22 8 -24 8 -24 -7z"/>
<path d="M4060 8606 c0 -8 5 -18 10 -21 6 -3 10 3 10 14 0 12 -4 21 -10 21 -5
0 -10 -6 -10 -14z"/>
<path d="M4940 8590 c-12 -7 -12 -12 -3 -21 10 -10 14 -9 19 5 8 22 2 27 -16
16z"/>
<path d="M5817 8585 c-4 -8 -13 -15 -22 -15 -8 0 -15 -4 -15 -10 0 -18 25 -11
38 11 7 12 11 23 9 25 -3 3 -7 -2 -10 -11z"/>
<path d="M4512 8578 c3 -7 13 -15 22 -16 12 -3 17 1 14 10 -3 7 -13 15 -22 16
-12 3 -17 -1 -14 -10z"/>
<path d="M2420 8550 c0 -12 17 -12 45 0 17 7 15 9 -12 9 -18 1 -33 -3 -33 -9z"/>
<path d="M6325 8551 c-6 -11 9 -23 19 -14 9 9 7 23 -3 23 -6 0 -12 -4 -16 -9z"/>
<path d="M4003 8514 c-12 -13 -18 -24 -14 -24 10 0 45 39 40 44 -2 3 -14 -6
-26 -20z"/>
<path d="M3624 8514 c3 -9 6 -24 6 -35 0 -10 5 -19 11 -19 6 0 8 9 4 21 -5 14
-1 25 12 34 17 13 16 14 -11 15 -22 0 -27 -4 -22 -16z"/>
<path d="M2420 8497 c0 -7 6 -22 14 -33 12 -15 17 -16 27 -7 10 10 9 17 -6 33
-21 23 -35 26 -35 7z"/>
<path d="M4412 8498 c5 -15 28 -18 29 -3 0 6 -7 12 -17 13 -10 3 -15 -1 -12
-10z"/>
<path d="M2530 8496 c0 -2 7 -9 15 -16 12 -10 15 -10 15 4 0 9 -7 16 -15 16
-8 0 -15 -2 -15 -4z"/>
<path d="M3442 8486 c1 -10 8 -17 13 -17 15 1 12 24 -3 29 -9 3 -13 -2 -10
-12z"/>
<path d="M4960 8456 c0 -9 7 -16 16 -16 17 0 14 22 -4 28 -7 2 -12 -3 -12 -12z"/>
<path d="M2725 8450 c-4 -6 -3 -16 3 -22 6 -6 12 -6 17 2 4 6 3 16 -3 22 -6 6
-12 6 -17 -2z"/>
<path d="M3325 8449 c-10 -15 3 -25 16 -12 7 7 7 13 1 17 -6 3 -14 1 -17 -5z"/>
<path d="M3384 8436 c-8 -22 3 -33 18 -18 9 9 9 15 0 24 -9 9 -13 7 -18 -6z"/>
<path d="M5202 8420 c-14 -23 -5 -26 21 -6 20 16 22 26 4 26 -7 0 -18 -9 -25
-20z"/>
<path d="M3283 8423 c-20 -8 -15 -23 7 -23 11 0 20 7 20 15 0 15 -6 17 -27 8z"/>
<path d="M4627 8417 c-16 -11 -16 -14 -2 -35 29 -41 69 -17 45 27 -12 24 -20
26 -43 8z"/>
<path d="M4054 8387 c-25 -26 -40 -82 -25 -92 7 -3 11 2 11 14 0 16 6 21 28
21 43 0 55 18 34 52 -20 34 -21 34 -48 5z"/>
<path d="M4390 8391 c22 -17 23 -21 10 -38 -14 -16 -14 -17 3 -4 9 7 17 24 17
37 0 20 -5 24 -27 24 l-28 0 25 -19z"/>
<path d="M2457 8361 c-24 -24 -26 -29 -13 -40 17 -14 36 -7 36 14 0 8 10 19
21 26 17 9 19 13 8 20 -19 12 -20 11 -52 -20z"/>
<path d="M6230 8380 c0 -5 7 -10 15 -10 8 0 15 5 15 10 0 6 -7 10 -15 10 -8 0
-15 -4 -15 -10z"/>
<path d="M2132 8353 c2 -15 -3 -17 -30 -15 -34 4 -50 -14 -38 -44 6 -15 8 -15
26 1 15 13 24 15 31 8 31 -31 -51 -81 -111 -68 -29 6 -30 5 -30 -27 0 -18 -7
-44 -16 -56 -14 -20 -14 -23 2 -29 12 -4 22 1 32 15 9 14 25 22 44 22 16 0 36
7 45 15 8 9 23 13 33 10 23 -7 36 11 20 30 -9 10 -7 15 9 20 11 3 23 15 26 26
4 10 13 19 21 19 16 0 19 16 5 24 -5 3 -7 15 -4 25 5 21 0 25 -40 35 -23 5
-28 4 -25 -11z"/>
<path d="M2565 8329 c-4 -6 -5 -13 -2 -16 7 -7 27 6 27 18 0 12 -17 12 -25 -2z"/>
<path d="M3112 8328 c-18 -18 -14 -28 8 -28 11 0 20 6 20 14 0 21 -15 27 -28
14z"/>
<path d="M3860 8305 c-14 -17 -5 -35 19 -35 20 0 54 33 44 43 -12 12 -50 7
-63 -8z"/>
<path d="M3410 8290 c0 -11 7 -20 15 -20 17 0 18 2 9 24 -9 23 -24 20 -24 -4z"/>
<path d="M2724 8269 c-3 -6 -2 -15 4 -21 12 -12 43 -7 43 7 1 14 -39 26 -47
14z"/>
<path d="M2637 8263 c-12 -11 -8 -23 8 -23 8 0 15 7 15 15 0 16 -12 20 -23 8z"/>
<path d="M3557 8243 c-52 -37 -49 -53 9 -49 55 5 64 12 57 49 -7 34 -18 34
-66 0z"/>
<path d="M5172 8248 c6 -18 28 -21 28 -4 0 9 -7 16 -16 16 -9 0 -14 -5 -12
-12z"/>
<path d="M2965 8240 c-11 -17 5 -50 24 -50 10 0 24 7 31 15 10 12 10 15 -3 15
-9 0 -22 7 -31 15 -9 10 -17 11 -21 5z"/>
<path d="M3860 8220 c0 -13 5 -20 13 -17 6 2 12 10 12 17 0 7 -6 15 -12 18 -8
2 -13 -5 -13 -18z"/>
<path d="M2215 8220 c-7 -12 2 -30 16 -30 12 0 12 27 0 35 -5 3 -12 1 -16 -5z"/>
<path d="M2640 8203 c0 -15 35 -43 53 -43 18 0 21 8 9 27 -9 15 -62 28 -62 16z"/>
<path d="M2842 8185 c-15 -33 5 -46 28 -18 12 15 21 18 33 11 11 -6 17 -5 17
2 0 5 1 13 3 18 1 4 -14 8 -34 9 -30 2 -38 -2 -47 -22z"/>
<path d="M2104 8132 c-6 -4 -13 -15 -17 -24 -3 -9 -16 -18 -29 -20 -28 -4 -38
-38 -11 -38 24 0 63 27 63 44 0 8 7 16 15 20 8 3 15 10 15 16 0 12 -20 13 -36
2z"/>
<path d="M2530 8121 c-12 -22 -4 -51 14 -51 11 0 20 12 44 63 9 17 -48 6 -58
-12z"/>
<path d="M3274 8125 c-4 -10 1 -21 12 -30 22 -16 37 -5 32 21 -4 24 -36 30
-44 9z"/>
<path d="M3977 8134 c-15 -15 -6 -24 24 -24 20 0 29 4 27 13 -5 14 -40 21 -51
11z"/>
<path d="M3380 8115 c0 -8 5 -15 10 -15 6 0 10 7 10 15 0 8 -4 15 -10 15 -5 0
-10 -7 -10 -15z"/>
<path d="M2307 8105 c-11 -26 -9 -32 18 -49 23 -15 25 -15 25 1 0 10 -9 29
-19 42 -16 21 -19 21 -24 6z"/>
<path d="M2154 8098 c-6 -9 25 -58 37 -58 5 0 9 11 9 25 0 13 7 28 15 33 11 5
4 8 -20 8 -20 0 -38 -3 -41 -8z"/>
<path d="M1911 8087 c-6 -6 -11 -16 -11 -22 0 -6 -11 -22 -25 -35 -14 -13 -25
-35 -25 -49 0 -13 -9 -35 -21 -47 -19 -20 -20 -26 -8 -57 10 -29 10 -39 0 -51
-25 -30 50 -126 99 -126 14 -1 43 -7 65 -15 44 -16 60 -11 32 10 -24 17 -18
46 11 61 33 17 28 28 -15 34 l-38 5 0 55 c0 50 2 55 23 58 29 4 23 27 -7 28
-12 1 -27 6 -33 12 -11 11 -11 12 37 27 9 2 15 16 15 35 0 16 0 33 1 38 1 7
-7 12 -58 35 -22 11 -34 12 -42 4z m-1 -163 c0 -26 -17 -33 -26 -9 -8 20 3 48
16 40 5 -3 10 -17 10 -31z m0 -115 c0 -20 -8 -23 -35 -13 -14 6 -14 8 2 24 21
20 33 17 33 -11z"/>
<path d="M3688 8093 c-21 -5 -23 -24 -6 -41 15 -15 38 3 38 29 0 19 -2 20 -32
12z"/>
<path d="M2817 8083 c-13 -12 -7 -53 7 -53 17 0 48 39 40 52 -6 10 -38 11 -47
1z"/>
<path d="M2756 8053 c-11 -11 -6 -23 9 -23 8 0 15 4 15 9 0 13 -16 22 -24 14z"/>
<path d="M3115 8010 c-8 -13 4 -32 16 -25 12 8 12 35 0 35 -6 0 -13 -4 -16
-10z"/>
<path d="M2799 7971 c14 -25 28 -34 35 -22 3 5 -6 16 -20 26 -25 16 -25 16
-15 -4z"/>
<path d="M3930 7968 c0 -9 -3 -23 -6 -32 -3 -9 -2 -16 4 -16 14 0 23 43 12 54
-7 7 -10 4 -10 -6z"/>
<path d="M2587 7964 c-12 -13 4 -24 34 -24 20 0 29 4 27 13 -5 13 -50 22 -61
11z"/>
<path d="M2426 7931 c-9 -14 4 -41 19 -41 8 0 11 8 8 20 -6 24 -19 34 -27 21z"/>
<path d="M3852 7915 c-10 -21 -9 -27 3 -30 8 -3 21 -7 29 -9 8 -3 16 -15 18
-28 2 -19 9 -23 32 -21 50 4 79 -39 36 -52 -13 -4 -20 -15 -20 -31 0 -17 5
-24 20 -24 12 0 20 7 20 17 0 10 7 37 16 60 14 35 21 42 35 38 16 -5 19 -1 19
29 0 40 -6 43 -38 21 -17 -13 -26 -13 -43 -5 -11 6 -27 9 -36 6 -9 -4 -25 6
-41 24 -32 36 -36 37 -50 5z"/>
<path d="M3022 7913 c2 -10 11 -19 21 -21 16 -3 17 -1 5 17 -16 25 -31 27 -26
4z"/>
<path d="M2903 7885 c-6 -16 22 -44 43 -45 18 0 26 31 13 46 -15 19 -48 18
-56 -1z"/>
<path d="M3707 7884 c-12 -12 4 -24 33 -24 16 0 32 -4 35 -10 3 -5 13 -10 21
-10 8 0 14 5 14 10 0 6 -8 10 -18 10 -10 0 -27 7 -38 15 -21 16 -37 19 -47 9z"/>
<path d="M3625 7860 c-10 -11 -24 -20 -32 -20 -7 0 -13 -7 -13 -15 0 -13 7
-15 36 -9 l35 6 -6 -38 c-4 -22 -13 -44 -21 -50 -8 -6 -11 -14 -7 -17 15 -16
34 -4 59 34 24 38 24 42 9 59 -11 12 -14 26 -9 44 5 21 3 26 -13 26 -11 0 -28
-9 -38 -20z"/>
<path d="M2330 7845 c12 -13 27 -22 32 -19 12 8 -21 44 -40 44 -12 0 -10 -6 8
-25z"/>
<path d="M4460 7863 c0 -14 19 -38 25 -32 8 8 -5 39 -16 39 -5 0 -9 -3 -9 -7z"/>
<path d="M3330 7835 c0 -14 2 -25 4 -25 2 0 6 11 8 25 3 14 1 25 -3 25 -5 0
-9 -11 -9 -25z"/>
<path d="M2171 7816 c-13 -15 4 -26 40 -26 24 0 24 9 2 26 -23 17 -28 17 -42
0z"/>
<path d="M3156 7823 c-12 -12 -5 -23 14 -23 11 0 20 4 20 9 0 11 -26 22 -34
14z"/>
<path d="M4150 7806 c0 -10 9 -16 21 -16 24 0 21 23 -4 28 -10 2 -17 -3 -17
-12z"/>
<path d="M2490 7807 c0 -3 7 -21 16 -42 17 -41 30 -37 36 10 3 26 0 30 -24 33
-16 2 -28 1 -28 -1z"/>
<path d="M4255 7803 c-16 -3 -34 -11 -38 -19 -4 -8 -16 -14 -26 -14 -20 0 -31
-19 -31 -51 0 -25 27 -24 48 1 15 18 24 20 75 14 54 -6 57 -8 55 -33 -4 -56
29 -68 61 -22 18 25 27 29 73 28 29 0 60 -5 68 -12 8 -7 25 -15 38 -18 21 -5
22 -3 16 31 -4 21 -12 40 -18 44 -15 10 -54 10 -60 -1 -8 -12 -151 23 -148 37
1 7 -2 12 -8 12 -5 0 -10 -4 -10 -10 0 -16 -40 -12 -46 5 -4 8 -9 14 -13 14
-3 -1 -19 -4 -36 -6z"/>
<path d="M3860 7774 c-7 -17 -7 -31 -1 -37 14 -14 31 1 31 28 0 35 -18 40 -30
9z"/>
<path d="M4710 7785 c-7 -8 -20 -15 -30 -15 -10 0 -23 -7 -30 -15 -17 -20 8
-29 61 -22 49 6 48 6 42 40 -6 30 -24 35 -43 12z"/>
<path d="M3415 7743 c-104 -37 -125 -40 -132 -14 -3 11 -9 21 -14 21 -13 0
-11 -27 2 -35 6 -5 8 -22 4 -48 -6 -35 -5 -39 10 -33 9 3 37 -1 61 -9 63 -21
64 -21 57 30 -6 50 -8 49 70 45 41 -2 47 1 47 18 0 29 -10 52 -24 51 -6 0 -42
-12 -81 -26z"/>
<path d="M4056 7747 c-25 -20 -26 -24 -12 -36 22 -18 86 11 86 39 0 28 -37 26
-74 -3z"/>
<path d="M3755 7751 c-7 -13 12 -51 25 -51 6 0 23 -14 38 -31 22 -25 33 -30
51 -24 17 5 21 13 19 33 -3 24 -7 27 -42 27 -34 0 -41 4 -46 25 -6 26 -33 39
-45 21z"/>
<path d="M5056 7751 c-7 -10 22 -37 30 -28 9 8 -3 37 -15 37 -5 0 -12 -4 -15
-9z"/>
<path d="M3170 7729 c-25 -11 -52 -30 -62 -41 -13 -18 -19 -20 -31 -10 -13 11
-22 6 -57 -30 -55 -57 -62 -66 -89 -110 -12 -21 -29 -38 -36 -38 -8 0 -19 -16
-26 -35 -14 -36 -24 -44 -32 -22 -2 6 -8 8 -13 4 -5 -4 -2 -13 6 -18 12 -8 12
-12 2 -16 -7 -3 -22 -22 -32 -44 -11 -21 -27 -39 -35 -39 -8 0 -15 -9 -15 -20
0 -13 7 -20 20 -20 23 0 70 65 70 97 0 18 6 23 27 23 14 0 35 -7 45 -17 22
-19 24 -5 3 23 -8 10 -15 24 -15 29 0 12 55 42 85 47 15 3 19 10 17 30 -2 18
3 30 17 37 11 6 21 23 23 38 2 22 8 27 23 25 55 -9 60 -7 61 18 2 43 21 69 46
63 13 -3 29 -13 36 -22 12 -14 13 -12 7 17 -4 20 -3 32 4 32 6 0 11 5 11 10 0
13 -7 12 -60 -11z"/>
<path d="M2310 7711 c0 -15 29 -21 55 -11 36 14 31 20 -15 20 -22 0 -40 -4
-40 -9z"/>
<path d="M4767 7707 c-8 -22 7 -53 33 -67 23 -12 102 8 97 25 -2 5 -28 10 -57
10 -49 0 -54 2 -60 25 -5 22 -7 23 -13 7z"/>
<path d="M4694 7696 c-4 -10 -13 -14 -24 -11 -9 3 -24 -3 -34 -14 -18 -19 -17
-20 9 -27 44 -11 108 50 68 63 -7 3 -16 -3 -19 -11z"/>
<path d="M3733 7689 c-13 -5 -23 -15 -23 -24 0 -19 39 -20 46 0 10 24 1 33
-23 24z"/>
<path d="M5125 7689 c-8 -12 -9 -12 34 -32 43 -21 63 -22 59 -1 -2 9 -21 22
-43 30 -48 17 -42 16 -50 3z"/>
<path d="M3554 7666 c-16 -42 38 -83 72 -55 13 10 10 16 -18 40 -38 32 -46 35
-54 15z"/>
<path d="M2502 7648 c-19 -19 -14 -26 13 -20 14 2 25 11 25 18 0 17 -22 18
-38 2z"/>
<path d="M1996 7619 c-14 -17 -26 -35 -26 -40 0 -6 -14 -15 -30 -21 -34 -11
-35 -31 -2 -36 11 -2 26 -10 32 -18 7 -8 29 -14 49 -14 30 0 40 6 60 35 19 28
21 38 11 50 -9 11 -16 12 -31 2 -15 -9 -22 -8 -36 6 -17 17 -17 19 0 28 18 10
24 39 8 39 -5 0 -21 -14 -35 -31z"/>
<path d="M5562 7609 c2 -7 10 -15 17 -17 8 -3 12 1 9 9 -2 7 -10 15 -17 17 -8
3 -12 -1 -9 -9z"/>
<path d="M2124 7585 c-6 -15 2 -35 14 -35 4 0 13 4 21 9 12 8 12 12 2 25 -17
20 -30 20 -37 1z"/>
<path d="M2331 7512 c-17 -32 -13 -52 9 -52 21 0 28 33 11 59 -7 11 -11 10
-20 -7z"/>
<path d="M2091 7480 c-8 -25 -14 -30 -31 -25 -25 8 -26 -8 -5 -59 18 -43 36
-43 47 1 5 18 16 33 28 36 27 7 25 29 -4 56 l-24 22 -11 -31z"/>
<path d="M2195 7410 c-4 -6 8 -10 30 -10 22 0 34 4 30 10 -3 6 -17 10 -30 10
-13 0 -27 -4 -30 -10z"/>
<path d="M4275 7391 c-6 -11 9 -23 19 -14 9 9 7 23 -3 23 -6 0 -12 -4 -16 -9z"/>
<path d="M2118 7338 c-2 -16 -13 -25 -40 -33 -77 -21 -74 -53 5 -62 44 -5 45
-6 63 -59 17 -51 17 -54 0 -73 -16 -17 -17 -23 -6 -36 8 -9 25 -15 39 -13 20
2 27 10 31 33 5 32 8 33 40 13 24 -15 25 -27 5 -42 -9 -7 -12 -19 -9 -33 6
-23 24 -32 24 -13 0 14 33 13 48 -2 19 -19 14 -44 -13 -62 -14 -9 -25 -23 -25
-31 0 -17 30 -35 60 -35 21 0 33 -20 45 -73 3 -17 18 -35 35 -45 18 -11 32
-29 36 -47 4 -16 15 -36 25 -43 12 -8 20 -31 24 -70 4 -31 13 -64 20 -72 7 -8
16 -55 20 -105 5 -57 14 -104 27 -128 10 -21 18 -50 16 -65 -3 -36 23 -202 34
-208 4 -3 8 -12 8 -21 0 -17 -33 -12 -84 13 -52 25 -92 18 -122 -21 -33 -44
-40 -98 -24 -206 6 -46 14 -172 16 -279 4 -120 11 -216 20 -249 8 -31 14 -91
14 -136 0 -86 22 -210 47 -262 20 -41 69 -92 119 -122 32 -19 45 -22 73 -15
35 9 55 34 28 34 -8 0 -34 16 -57 35 -23 19 -46 35 -51 35 -15 0 -10 48 7 82
16 31 16 32 -10 53 -17 14 -31 38 -37 65 -5 24 -23 58 -39 77 -17 19 -30 40
-30 48 0 22 30 18 56 -6 24 -22 74 -18 74 7 0 15 -49 44 -74 44 -23 0 -74 88
-81 140 -5 40 7 147 35 309 5 29 17 62 26 73 17 18 19 17 76 -44 35 -38 58
-72 58 -85 0 -13 5 -23 10 -23 6 0 10 10 10 23 0 13 5 28 11 34 8 8 8 13 0 17
-6 4 -11 20 -11 35 0 36 -10 45 -25 24 -11 -15 -18 -11 -66 42 -30 33 -61 66
-69 75 -44 45 -79 100 -82 126 l-3 29 56 -2 c78 -2 120 -31 155 -108 l28 -60
8 34 c11 40 5 325 -7 360 -5 16 -5 22 2 18 15 -9 22 13 16 46 -4 20 -11 27
-28 27 -18 0 -24 7 -29 34 -4 18 -4 40 -1 48 4 9 -1 18 -10 22 -12 4 -15 13
-11 30 3 14 1 28 -5 32 -6 4 -9 19 -5 37 5 22 1 36 -13 51 -23 25 -27 44 -17
74 5 15 2 31 -8 47 -9 13 -16 36 -16 51 0 15 -14 42 -35 67 -35 40 -45 67 -25
67 6 0 10 -4 10 -10 0 -21 20 -9 26 16 8 33 -7 50 -32 34 -21 -13 -74 1 -74
20 0 6 16 26 36 44 21 19 34 39 30 45 -11 17 -29 13 -22 -4 9 -25 -19 -28 -68
-7 -33 15 -47 28 -52 47 -4 15 -18 38 -31 51 -17 17 -22 31 -18 42 15 35 10
47 -18 50 -16 2 -35 -2 -42 -8 -18 -15 -45 -6 -45 15 0 9 10 29 22 45 20 28
20 31 5 48 -9 10 -17 24 -17 30 0 7 -4 12 -10 12 -5 0 -10 -11 -10 -24 0 -14
-5 -28 -11 -32 -14 -8 -31 16 -24 34 5 13 -15 52 -27 52 -4 0 -8 -10 -10 -22z
m436 -2364 c10 -4 16 -18 16 -36 0 -25 -4 -29 -22 -26 -18 2 -24 11 -26 36 -3
32 3 37 32 26z"/>
<path d="M4250 7325 c0 -8 5 -15 10 -15 6 0 10 7 10 15 0 8 -4 15 -10 15 -5 0
-10 -7 -10 -15z"/>
<path d="M3885 7300 c-8 -13 20 -24 36 -15 8 6 7 10 -2 16 -18 11 -26 11 -34
-1z"/>
<path d="M2883 7243 c-17 -6 -17 -33 0 -33 14 0 37 20 37 32 0 9 -18 9 -37 1z"/>
<path d="M2630 7194 c-21 -21 -22 -27 -10 -34 11 -7 19 -4 29 10 7 11 23 20
35 20 21 1 21 1 2 15 -26 20 -29 19 -56 -11z"/>
<path d="M2851 7173 c0 -25 1 -26 9 -8 12 27 12 35 0 35 -5 0 -10 -12 -9 -27z"/>
<path d="M2795 7090 c-8 -12 20 -24 35 -15 6 3 8 11 5 16 -8 12 -32 12 -40 -1z"/>
<path d="M4079 7029 c-9 -5 -9 -9 -2 -9 6 0 18 -3 27 -6 9 -3 16 -2 16 4 0 15
-25 21 -41 11z"/>
<path d="M4042 6999 c2 -6 8 -10 13 -10 5 0 11 4 13 10 2 6 -4 11 -13 11 -9 0
-15 -5 -13 -11z"/>
<path d="M2736 6841 c-12 -14 -14 -21 -6 -26 17 -10 47 22 34 35 -7 7 -16 4
-28 -9z"/>
<path d="M3806 6732 c-3 -6 -1 -14 5 -17 15 -10 25 3 12 16 -7 7 -13 7 -17 1z"/>
<path d="M3190 6406 c0 -9 -8 -16 -20 -16 -11 0 -28 -4 -38 -9 -9 -5 -25 -12
-35 -15 -11 -3 -21 -15 -24 -26 -4 -14 -14 -20 -35 -20 -21 0 -40 -11 -66 -37
-46 -48 -82 -100 -82 -118 0 -8 -9 -19 -20 -25 -11 -6 -20 -17 -20 -24 0 -16
39 -66 40 -50 0 22 62 103 83 110 12 4 36 23 54 42 22 23 45 37 70 41 31 6 38
11 36 28 -2 15 5 23 24 28 14 3 29 2 32 -3 3 -5 39 -12 79 -16 40 -3 99 -15
130 -26 31 -11 73 -20 94 -20 20 0 40 -4 43 -10 9 -14 138 -13 153 2 8 8 15 8
26 -1 11 -9 20 -10 33 -2 17 10 16 11 -4 17 -13 3 -23 12 -23 18 0 15 63 38
83 30 8 -3 18 -1 22 5 10 17 25 13 25 -8 0 -19 23 -35 34 -24 3 4 6 16 6 28 0
27 -37 45 -93 45 -24 0 -47 4 -53 9 -5 6 -32 13 -60 16 -38 5 -54 3 -65 -7
-13 -13 -16 -13 -29 0 -12 13 -15 13 -23 -6 -6 -12 -18 -22 -27 -22 -22 0 -44
25 -35 40 10 16 -11 12 -25 -5 -7 -8 -25 -15 -41 -15 -22 0 -29 5 -29 20 0 29
-26 38 -83 28 -51 -10 -86 -8 -119 7 -13 5 -18 3 -18 -9z m189 -30 c16 -19 1
-26 -42 -19 -44 7 -48 20 -9 26 15 2 30 5 33 6 4 0 12 -5 18 -13z m271 -71 c0
-8 -4 -15 -10 -15 -5 0 -10 7 -10 15 0 8 5 15 10 15 6 0 10 -7 10 -15z"/>
<path d="M5282 6403 c-9 -7 -44 -13 -78 -13 -52 0 -63 -3 -83 -26 -17 -20 -30
-25 -52 -22 -16 3 -29 1 -29 -4 0 -5 -11 -13 -25 -18 -14 -5 -25 -14 -25 -20
0 -13 -47 -13 -55 1 -8 13 23 44 53 53 29 10 28 18 -5 34 -37 17 -46 15 -40
-8 6 -24 -9 -35 -43 -32 -39 3 -51 -10 -44 -46 6 -29 10 -32 44 -32 27 0 41
-6 52 -22 14 -21 15 -21 56 -5 24 9 59 17 79 17 32 0 86 19 145 51 10 5 28 9
41 9 13 0 47 7 76 16 48 14 57 14 92 0 22 -9 50 -16 64 -16 13 0 32 -9 42 -19
15 -16 79 -41 106 -41 5 0 7 10 5 22 -2 13 -14 25 -33 32 -17 6 -41 21 -53 33
-12 12 -34 25 -49 29 -16 3 -41 12 -58 19 -41 19 -162 25 -183 8z"/>
<path d="M5048 6403 c-10 -2 -18 -9 -18 -15 0 -6 10 -8 23 -4 12 3 33 6 47 6
20 0 22 2 10 10 -16 10 -33 11 -62 3z"/>
<path d="M4727 6332 c-24 -26 -21 -33 8 -20 14 6 25 17 25 25 0 18 -14 16 -33
-5z"/>
<path d="M5667 6235 c-7 -16 8 -29 23 -20 15 9 12 35 -4 35 -8 0 -16 -7 -19
-15z"/>
<path d="M4925 6092 c-86 -21 -225 -84 -252 -114 -9 -10 -23 -18 -31 -18 -10
0 -13 -7 -8 -22 3 -13 6 -34 6 -48 1 -24 1 -25 15 -5 58 79 107 107 273 162
90 29 118 33 211 34 81 1 116 -3 139 -15 17 -9 39 -16 48 -16 30 0 127 -33
164 -56 67 -40 107 -41 59 -1 -30 26 -110 60 -235 101 -67 21 -301 20 -389 -2z"/>
<path d="M3477 6093 c-14 -13 -6 -24 16 -22 12 2 27 0 34 -4 7 -4 52 -12 100
-18 65 -7 107 -19 158 -43 39 -19 85 -39 103 -46 46 -18 84 -65 76 -96 -7 -29
11 -32 26 -4 12 22 4 63 -17 96 -7 12 -11 29 -7 38 4 10 1 16 -7 17 -8 1 -33
2 -55 3 -23 1 -71 16 -106 34 -48 23 -83 33 -139 37 -41 3 -97 8 -125 10 -28
3 -54 2 -57 -2z"/>
<path d="M3254 6070 c-38 -11 -81 -25 -95 -32 -106 -57 -184 -138 -133 -138 8
0 41 19 72 43 81 61 184 101 295 113 38 5 57 11 57 20 0 21 -110 17 -196 -6z"/>
<path d="M6392 6054 c-18 -8 -35 -21 -38 -29 -4 -8 -13 -15 -21 -15 -8 0 -29
-11 -47 -25 -18 -14 -41 -25 -51 -25 -10 0 -33 -9 -51 -21 -32 -19 -34 -24
-34 -75 0 -62 13 -69 38 -22 32 59 76 99 117 108 22 5 58 15 80 23 55 20 121
10 117 -18 -2 -11 -7 -21 -11 -23 -5 -1 -17 -9 -27 -17 -18 -13 -18 -14 9 -24
15 -6 27 -16 27 -22 0 -7 7 -20 15 -28 7 -9 18 -41 24 -71 5 -30 17 -76 26
-102 16 -43 16 -51 1 -103 -18 -61 -36 -65 -36 -8 0 19 -6 49 -14 66 -8 18
-16 41 -18 51 -2 11 -9 21 -15 24 -20 6 -16 -83 6 -176 34 -143 7 -341 -53
-391 -8 -7 -24 -30 -35 -52 -23 -44 -15 -84 14 -73 17 7 19 -15 8 -79 -7 -45
-28 -58 -48 -31 -13 18 -14 18 -21 -1 -13 -35 -82 -95 -140 -121 l-56 -26 -22
21 c-31 29 -42 26 -55 -11 -6 -18 -24 -45 -38 -60 -33 -34 -50 -93 -63 -215
-15 -145 -81 -346 -125 -383 -8 -7 -15 -21 -15 -32 0 -10 -6 -31 -14 -46 -21
-41 -49 -247 -37 -270 5 -10 10 -90 10 -178 0 -208 7 -322 21 -359 7 -17 14
-85 15 -152 4 -134 -4 -112 108 -326 37 -71 76 -126 90 -126 5 -1 41 -27 80
-59 40 -32 101 -73 137 -91 36 -18 74 -41 84 -52 24 -23 46 -104 39 -144 -13
-75 -100 -273 -139 -317 -9 -9 -30 -38 -47 -66 -18 -27 -62 -76 -99 -107 -38
-32 -68 -62 -68 -68 0 -10 -46 -57 -57 -57 -7 0 -102 -72 -128 -98 -11 -10
-33 -27 -50 -36 -16 -9 -48 -27 -70 -40 -22 -13 -65 -36 -95 -50 -30 -15 -62
-31 -70 -36 -8 -6 -24 -14 -35 -19 -11 -5 -41 -18 -65 -29 -61 -28 -76 -31
-140 -33 -30 -1 -60 -6 -67 -11 -6 -5 -33 -11 -60 -13 -56 -4 -76 -11 -122
-42 -19 -13 -41 -23 -49 -23 -9 0 -29 -12 -44 -27 -26 -25 -37 -28 -107 -29
-42 -1 -86 -6 -97 -11 -19 -9 -185 -10 -214 0 -84 27 -100 30 -115 17 -10 -8
-24 -10 -42 -4 -16 4 -59 6 -98 5 -57 -2 -81 2 -126 23 -59 26 -69 25 -69 -6
0 -19 12 -19 -175 -3 -130 11 -270 42 -283 61 -7 10 -34 19 -147 50 -33 8 -67
21 -75 28 -35 29 -88 53 -100 46 -15 -9 -36 3 -132 75 -36 27 -97 68 -133 90
-37 22 -81 52 -97 68 -16 15 -43 33 -61 41 -61 26 -287 272 -287 312 0 7 -10
25 -23 41 -12 15 -28 39 -35 53 -7 14 -24 43 -37 65 -14 22 -25 52 -25 67 0
15 -4 30 -10 33 -5 3 -10 31 -10 61 0 45 4 59 25 80 14 14 25 29 25 34 0 5 6
13 14 17 26 15 158 137 271 251 61 61 118 112 125 112 17 0 46 47 65 105 8 22
21 60 30 84 13 37 17 108 20 443 3 220 7 403 10 408 12 20 -20 139 -58 215
-21 44 -46 103 -54 130 -8 28 -19 55 -23 60 -11 14 -36 118 -45 185 -4 30 -11
62 -16 71 -4 9 -11 50 -14 90 -7 94 -18 147 -37 185 -26 50 -38 98 -38 157 0
31 -4 59 -10 62 -5 3 -10 30 -10 60 0 30 -4 57 -10 60 -14 9 -6 180 10 199 10
13 10 16 -4 16 -10 0 -16 9 -16 25 0 20 -5 25 -26 25 -26 0 -26 -1 -20 -57 3
-32 7 -105 9 -163 2 -76 7 -114 20 -139 11 -22 17 -57 17 -100 0 -37 7 -93 15
-124 8 -32 15 -83 15 -113 0 -30 11 -102 25 -160 14 -58 25 -125 25 -149 0
-23 7 -56 15 -71 8 -16 15 -36 15 -45 0 -8 7 -24 15 -35 8 -10 15 -31 15 -45
0 -29 65 -180 82 -190 23 -14 28 -110 26 -542 -1 -383 -4 -459 -16 -469 -8 -7
-30 -37 -49 -67 -35 -55 -237 -262 -363 -374 -36 -31 -75 -57 -86 -57 -28 0
-104 -74 -104 -101 0 -67 91 -271 181 -407 16 -24 29 -47 29 -53 0 -5 4 -9 8
-9 4 0 21 -21 38 -47 27 -45 206 -232 266 -281 47 -37 201 -140 248 -165 25
-13 66 -36 92 -51 26 -14 53 -26 61 -26 8 0 20 -7 27 -15 7 -8 22 -15 34 -15
12 0 27 -5 33 -11 6 -6 26 -14 44 -19 38 -9 88 -27 136 -47 17 -7 42 -13 55
-13 12 0 32 -7 42 -15 11 -8 34 -15 50 -15 17 -1 42 -7 56 -15 14 -8 42 -14
63 -15 21 0 48 -5 59 -11 11 -6 57 -15 102 -20 44 -5 106 -13 136 -19 74 -14
578 -13 655 1 33 6 89 15 125 19 36 5 85 13 110 20 101 26 157 42 185 52 17 5
47 13 68 18 21 4 44 13 50 19 6 6 22 11 36 11 15 1 37 7 51 15 14 8 33 14 44
15 19 0 258 116 311 150 17 11 37 23 45 27 8 3 31 19 51 35 20 15 40 28 44 28
19 0 124 91 225 195 234 241 340 432 354 643 6 85 -4 132 -27 132 -7 0 -67 27
-132 60 -103 52 -129 70 -188 132 -71 75 -139 171 -174 248 -18 37 -22 68 -25
180 -3 111 -7 141 -23 170 -18 32 -20 60 -23 354 l-3 318 26 57 c14 31 31 63
36 71 5 8 17 31 25 50 9 19 25 54 35 77 10 23 19 56 19 72 0 17 9 48 20 68 12
23 20 57 20 88 0 70 25 235 40 268 14 29 30 33 60 17 23 -12 87 9 134 45 18
14 42 25 52 25 28 0 124 68 124 87 0 9 6 24 14 32 22 25 46 107 46 157 0 25 6
57 14 72 7 15 17 63 21 107 4 44 18 122 31 173 13 51 24 108 24 128 0 19 7 49
16 67 23 43 22 212 0 255 -9 17 -16 48 -16 70 0 43 -51 126 -92 149 -30 16
-95 15 -136 -3z"/>
<path d="M3401 6005 c-18 -8 -54 -15 -80 -15 -38 0 -64 -10 -136 -51 -113 -65
-176 -109 -169 -120 3 -5 27 -9 54 -9 30 0 54 -6 64 -15 16 -16 115 -39 125
-29 11 11 -41 44 -70 44 -22 0 -29 5 -29 20 0 22 132 115 153 107 7 -2 18 -22
26 -43 8 -22 27 -56 44 -78 l31 -38 59 6 c33 3 67 12 75 18 27 23 59 83 67
126 4 23 11 44 16 47 8 6 48 -11 59 -24 14 -18 60 -39 98 -46 32 -5 42 -11 42
-25 0 -14 -10 -21 -37 -25 -109 -19 -138 -30 -141 -52 -2 -13 -8 -23 -13 -23
-15 0 -10 -17 7 -24 9 -4 24 0 34 9 9 8 24 15 33 15 9 0 19 5 22 10 3 6 16 10
29 10 12 0 32 11 44 25 19 22 27 24 62 19 40 -7 40 -6 27 17 -32 60 -45 73
-97 97 -115 53 -150 61 -260 61 -70 0 -116 -5 -139 -14z m95 -19 c18 -14 18
-15 -11 -38 -37 -29 -49 -29 -53 0 -7 50 23 68 64 38z"/>
<path d="M4966 6003 c-78 -16 -208 -83 -236 -123 -13 -19 -21 -47 -23 -82 -2
-44 1 -53 17 -56 16 -3 18 0 12 19 -20 64 -19 68 10 75 15 4 39 20 53 36 19
24 30 29 52 24 19 -4 32 1 45 15 42 47 119 65 130 32 17 -52 30 -78 52 -104
22 -27 29 -29 92 -29 38 0 76 3 85 6 9 4 31 31 50 60 45 70 65 71 136 4 44
-42 60 -50 91 -50 20 0 40 4 43 10 8 13 -13 50 -28 50 -7 0 -35 14 -63 31
-119 76 -359 114 -518 82z m159 -28 c0 -11 -8 -21 -17 -23 -14 -3 -18 3 -18
23 0 20 4 26 18 23 9 -2 17 -12 17 -23z m95 -31 c0 -8 -9 -14 -20 -14 -19 0
-28 28 -13 43 9 9 33 -12 33 -29z"/>
<path d="M4874 5839 c-10 -4 -32 -8 -47 -8 -50 -2 -19 -18 45 -24 52 -6 67
-12 84 -33 16 -19 27 -24 43 -19 26 8 28 35 1 35 -10 0 -23 7 -28 16 -12 22
-74 42 -98 33z"/>
<path d="M3698 5753 c-10 -2 -18 -8 -18 -13 0 -14 -41 -19 -66 -8 -18 8 -31 7
-58 -6 -18 -9 -50 -16 -69 -16 -20 0 -42 -6 -49 -12 -16 -16 -165 -15 -195 1
-49 25 -98 2 -60 -28 81 -67 78 -66 163 -69 60 -3 89 0 112 12 17 9 43 16 58
16 31 0 174 65 174 79 0 5 9 13 20 16 11 3 20 13 20 21 0 14 -2 15 -32 7z"/>
<path d="M5247 5744 c-11 -11 3 -24 18 -18 8 4 12 10 9 15 -6 11 -18 12 -27 3z"/>
<path d="M4934 5715 c15 -14 33 -25 41 -25 8 0 29 -6 47 -14 18 -8 49 -21 68
-29 84 -36 365 -26 365 13 0 8 4 21 9 28 4 7 6 15 5 17 -2 1 -47 -6 -99 -17
-81 -16 -105 -18 -164 -8 -81 13 -91 17 -76 35 8 9 5 14 -12 19 -35 9 -68 7
-68 -4 0 -5 9 -10 21 -10 12 0 19 -5 16 -12 -2 -7 -13 -12 -23 -11 -35 3 -109
24 -118 34 -6 5 -17 9 -24 9 -10 0 -5 -9 12 -25z"/>
<path d="M4750 5714 c0 -13 42 -65 60 -74 17 -9 18 -8 13 7 -12 31 -73 87 -73
67z"/>
<path d="M6196 5568 c-9 -12 -16 -34 -16 -49 0 -23 5 -27 42 -32 25 -3 53 -1
68 6 47 23 32 76 -23 82 -12 2 -29 6 -38 10 -11 4 -22 -1 -33 -17z"/>
<path d="M2589 5524 c-7 -9 -15 -42 -17 -74 -4 -57 -4 -58 19 -55 58 7 69 24
69 103 0 40 -2 42 -29 42 -16 0 -34 -7 -42 -16z"/>
<path d="M6165 5349 c2 -24 4 -47 4 -51 1 -5 6 -8 12 -8 8 0 9 14 5 43 -10 58
-25 70 -21 16z"/>
<path d="M4065 5350 c-9 -17 -14 -39 -12 -48 3 -12 5 -10 6 6 0 12 7 25 15 28
18 7 28 32 16 39 -5 3 -16 -8 -25 -25z"/>
<path d="M4710 5339 c0 -7 10 -22 23 -34 101 -100 159 -280 113 -351 -19 -28
-82 -62 -145 -79 -25 -6 -46 -16 -49 -23 -5 -16 98 -16 153 -1 53 15 115 77
115 116 0 16 4 33 10 39 6 6 4 31 -6 69 -19 74 -36 107 -85 169 -22 27 -39 54
-39 62 0 7 -13 15 -30 19 -16 4 -32 11 -35 16 -8 13 -25 11 -25 -2z"/>
<path d="M3722 5283 c-23 -47 -26 -62 -18 -80 14 -29 24 -29 35 0 5 13 21 41
35 62 34 49 34 75 1 75 -20 0 -30 -10 -53 -57z"/>
<path d="M6263 5190 c-35 -17 -69 -30 -76 -30 -16 0 -37 -41 -37 -70 0 -29 18
-25 83 20 31 22 61 40 66 40 10 0 51 53 51 64 0 12 -27 5 -87 -24z"/>
<path d="M3699 5043 c-7 -18 -6 -30 1 -37 5 -5 10 -16 10 -22 0 -16 52 -94 77
-115 56 -49 158 -65 158 -24 0 14 -12 24 -42 35 -127 47 -52 65 164 39 86 -10
104 -15 109 -31 9 -31 74 -67 119 -66 39 0 125 40 125 59 0 16 51 42 90 45 34
2 103 14 178 30 38 8 27 40 -23 64 -39 19 -55 21 -107 15 -78 -9 -120 -31
-183 -95 -51 -52 -74 -60 -94 -36 -8 10 -23 13 -47 9 -28 -5 -41 0 -78 31
-107 87 -213 108 -308 60 -62 -31 -90 -23 -108 30 -14 43 -27 46 -41 9z"/>
<path d="M4225 4749 c-10 -15 3 -25 16 -12 7 7 7 13 1 17 -6 3 -14 1 -17 -5z"/>
<path d="M4148 4708 c-29 -10 -35 -22 -18 -33 6 -3 10 -17 10 -31 0 -17 6 -24
19 -24 10 0 26 -11 34 -24 9 -13 29 -26 46 -29 30 -6 81 9 81 23 0 13 -38 41
-66 49 -19 5 -29 15 -30 27 -3 50 -4 54 -26 53 -13 0 -35 -5 -50 -11z"/>
<path d="M4440 4687 c0 -8 14 -26 30 -40 17 -15 30 -31 30 -36 0 -5 14 -12 31
-16 22 -5 36 -2 49 10 19 17 20 17 28 -5 9 -25 76 -53 105 -44 28 9 9 24 -29
24 -28 0 -36 5 -44 25 -7 18 -17 25 -37 25 -43 0 -102 24 -119 48 -17 24 -44
29 -44 9z"/>
<path d="M4032 4639 c-12 -19 -11 -20 10 -17 12 2 24 11 26 21 5 24 -20 21
-36 -4z"/>
<path d="M3934 4612 c8 -24 -17 -36 -44 -22 -10 6 -23 10 -29 10 -14 0 -14
-40 -1 -60 8 -12 13 -13 30 -2 11 6 31 12 44 12 65 0 106 50 54 65 -62 18 -60
18 -54 -3z"/>
<path d="M3714 4535 c-3 -8 -3 -19 1 -25 11 -18 25 -11 25 15 0 27 -17 34 -26
10z"/>
<path d="M3770 4515 c0 -8 5 -15 10 -15 6 0 10 7 10 15 0 8 -4 15 -10 15 -5 0
-10 -7 -10 -15z"/>
<path d="M3601 4486 c-17 -21 -3 -66 20 -66 25 0 44 46 28 66 -15 18 -33 18
-48 0z"/>
<path d="M4403 4479 c-24 -6 -43 -16 -43 -23 0 -16 55 -27 69 -13 5 5 46 11
92 14 51 4 75 9 63 13 -36 14 -139 19 -181 9z"/>
<path d="M4060 4464 c0 -9 5 -14 12 -12 18 6 21 28 4 28 -9 0 -16 -7 -16 -16z"/>
<path d="M4635 4440 c3 -5 13 -10 21 -10 8 0 14 5 14 10 0 6 -9 10 -21 10 -11
0 -17 -4 -14 -10z"/>
<path d="M3503 4393 c-19 -4 -23 -11 -22 -41 1 -36 1 -37 8 -7 6 25 11 30 34
28 18 -1 27 3 27 13 0 14 -6 15 -47 7z"/>
<path d="M4351 4377 c-8 -11 -6 -18 9 -32 11 -10 20 -28 21 -39 1 -18 2 -18 8
4 23 75 23 80 -3 80 -13 0 -29 -6 -35 -13z"/>
<path d="M4126 4273 c-4 -5 -36 -8 -69 -9 -34 0 -106 -8 -159 -18 -67 -11
-104 -13 -122 -6 -18 6 -33 5 -52 -5 -42 -21 -76 1 -36 24 14 9 14 10 1 11 -8
0 -21 -6 -27 -12 -7 -7 -39 -18 -70 -23 l-57 -10 3 -40 c2 -22 5 -41 6 -43 2
-1 15 3 29 9 22 10 35 9 71 -5 42 -16 47 -16 68 -2 12 9 39 16 58 16 20 0 45
6 55 14 22 16 196 13 270 -4 94 -22 233 -21 363 1 116 20 149 21 375 16 235
-6 247 -6 247 12 0 43 -92 80 -119 47 -18 -21 -146 -21 -256 0 -116 23 -195
26 -222 8 -27 -17 -85 -18 -101 -2 -8 8 -15 9 -20 3 -8 -12 -39 -16 -111 -16
-40 1 -60 6 -76 21 -23 21 -37 25 -49 13z"/>
<path d="M4772 4021 c2 -7 7 -12 11 -12 12 1 9 15 -3 20 -7 2 -11 -2 -8 -8z"/>
<path d="M4197 3976 c-6 -15 1 -26 15 -26 4 0 8 9 8 20 0 23 -15 27 -23 6z"/>
<path d="M3690 3969 c0 -36 116 -169 147 -169 7 0 26 -18 44 -39 17 -22 42
-42 55 -45 13 -4 32 -15 42 -27 13 -13 41 -23 88 -30 38 -5 78 -14 90 -18 12
-5 28 -5 39 1 10 6 54 12 99 14 95 3 234 22 258 35 10 5 24 9 31 9 8 0 22 9
31 19 10 11 31 23 46 26 15 3 36 15 46 26 17 18 16 19 -13 19 -17 0 -36 -7
-43 -15 -8 -10 -31 -15 -64 -15 -28 0 -69 -4 -91 -9 -22 -5 -126 -12 -232 -16
-292 -10 -334 4 -485 157 -49 49 -88 84 -88 77z"/>
<path d="M3300 3436 c0 -9 7 -16 16 -16 9 0 14 5 12 12 -6 18 -28 21 -28 4z"/>
<path d="M3476 3282 c-3 -6 -1 -14 5 -17 15 -10 25 3 12 16 -7 7 -13 7 -17 1z"/>
<path d="M3510 3243 c0 -15 23 -43 35 -43 24 0 17 24 -10 37 -14 6 -25 9 -25
6z"/>
<path d="M3596 3216 c-10 -37 -7 -44 47 -98 42 -44 171 -157 223 -198 21 -16
39 -15 82 4 40 18 44 18 59 3 15 -15 15 -17 0 -23 -31 -11 -19 -40 23 -57 39
-15 40 -15 40 7 0 12 -7 31 -15 42 -14 21 -13 21 48 27 36 3 67 1 74 -5 8 -7
34 -6 80 1 37 6 97 11 133 10 36 -1 121 0 190 2 113 4 128 7 158 29 63 46 29
62 -54 25 -57 -26 -65 -27 -289 -30 -126 -1 -257 1 -290 7 -80 12 -224 58
-254 80 -13 10 -32 18 -42 18 -12 0 -19 7 -19 20 0 13 -7 20 -20 20 -10 0 -43
22 -72 49 -102 96 -95 92 -102 67z"/>
<path d="M4960 3110 c-47 -13 -147 -69 -154 -85 -9 -24 -8 -25 23 -25 44 0
188 99 164 113 -4 2 -19 1 -33 -3z"/>
<path d="M6651 2473 c0 -5 13 -18 29 -31 21 -17 34 -21 46 -14 14 8 12 12 -11
30 -27 21 -66 30 -64 15z"/>
<path d="M2223 2450 c-65 -23 -181 -101 -258 -174 -33 -32 -71 -65 -85 -74
-196 -128 -250 -162 -280 -178 -57 -32 -149 -93 -245 -163 -119 -88 -170 -123
-200 -139 -14 -7 -25 -17 -25 -22 0 -4 -12 -12 -27 -18 -26 -9 -175 -113 -283
-197 -90 -70 -176 -133 -209 -151 -42 -24 -53 -31 -121 -75 -79 -52 -148 -91
-205 -117 -27 -13 -57 -27 -65 -33 -8 -5 -46 -25 -85 -45 -38 -19 -74 -39 -79
-45 -6 -5 -20 -9 -33 -9 -22 0 -23 -4 -23 -62 l0 -62 29 32 c17 17 34 32 40
32 5 0 16 6 23 13 7 6 78 45 158 85 171 85 254 130 295 159 17 11 64 42 105
69 41 26 144 99 227 161 84 62 156 113 159 113 3 0 23 12 43 28 20 15 44 32
53 37 36 22 137 92 215 149 133 98 190 136 323 217 207 125 308 200 416 307
24 23 45 42 48 42 3 0 24 13 48 28 24 15 67 39 95 52 93 44 48 77 -54 40z"/>
<path d="M2935 2457 c-4 -10 -5 -21 -1 -24 10 -10 18 4 13 24 -4 17 -4 17 -12
0z"/>
<path d="M6800 2386 c0 -3 13 -25 30 -49 31 -46 80 -84 140 -107 19 -7 40 -17
47 -23 14 -10 53 0 53 14 0 5 -8 9 -17 9 -33 0 -83 24 -83 40 0 9 -10 22 -22
28 -13 7 -48 30 -78 52 -51 37 -70 46 -70 36z"/>
<path d="M7121 2175 c13 -13 27 -25 31 -25 4 0 30 -13 58 -30 53 -31 85 -39
78 -18 -5 14 -156 98 -177 98 -8 0 -5 -9 10 -25z"/>
<path d="M7305 2080 c-3 -5 16 -20 42 -32 26 -13 51 -27 54 -31 8 -11 47 -34
72 -43 9 -3 17 -10 17 -14 0 -4 14 -13 30 -20 17 -7 30 -16 30 -20 0 -4 48
-32 108 -62 148 -76 205 -107 216 -119 6 -5 18 -9 27 -9 9 0 22 -7 29 -15 7
-8 19 -15 27 -15 9 0 31 -13 50 -30 18 -16 40 -30 47 -30 8 0 19 -7 26 -15 7
-8 20 -15 30 -15 10 0 23 -7 30 -15 7 -8 20 -15 30 -15 10 0 20 -7 24 -15 3
-8 16 -15 29 -15 14 0 30 -7 37 -15 7 -8 19 -15 26 -15 8 0 14 -4 14 -9 0 -5
12 -14 28 -19 15 -6 40 -22 56 -36 16 -14 35 -26 41 -26 7 0 18 -7 25 -15 13
-16 40 -21 40 -7 -1 6 -65 52 -112 78 -11 7 -25 17 -31 23 -6 6 -19 11 -29 11
-10 0 -18 4 -18 9 0 11 -75 51 -95 51 -8 0 -15 5 -15 10 0 6 -10 15 -22 20
-13 6 -36 19 -53 30 -16 11 -39 24 -50 30 -11 5 -27 14 -35 19 -8 5 -22 12
-30 15 -8 4 -28 15 -45 26 -16 11 -39 24 -50 30 -11 6 -33 19 -50 30 -16 11
-37 22 -45 26 -8 3 -22 10 -30 15 -8 5 -21 11 -27 14 -7 3 -19 7 -25 10 -7 3
-26 14 -43 25 -16 11 -54 32 -82 46 -29 14 -55 30 -58 35 -4 5 -13 9 -21 9 -8
0 -33 14 -56 30 -22 17 -47 30 -54 30 -7 0 -14 4 -16 8 -3 8 -71 52 -81 52 -3
0 -9 -4 -12 -10z"/>
<path d="M8500 1392 c0 -16 62 -54 72 -44 6 6 -3 17 -25 31 -37 23 -47 25 -47
13z"/>
<path d="M4651 1240 c-19 -11 5 -23 25 -12 14 8 14 10 2 15 -8 3 -21 2 -27 -3z"/>
<path d="M8744 1213 c14 -14 29 -23 33 -19 8 8 -32 46 -48 46 -6 0 0 -12 15
-27z"/>
<path d="M8846 1152 c-3 -6 -1 -14 5 -17 15 -10 25 3 12 16 -7 7 -13 7 -17 1z"/>
<path d="M8930 1081 c0 -16 31 -41 51 -41 10 0 19 7 19 15 0 8 -9 15 -19 15
-11 0 -23 5 -26 10 -8 13 -25 13 -25 1z"/>
</g>
</svg>
